<svg width="434" height="194" viewBox="0 0 434 194" fill="none" xmlns="http://www.w3.org/2000/svg">
<rect width="434" height="194" fill="#1E1E1E"/>
<rect width="434" height="194" fill="white"/>
<path d="M103.472 113.384C99.6747 113.384 96.432 112.573 93.744 110.952C91.0987 109.288 89.2427 107.133 88.176 104.488C87.92 104.061 87.792 103.635 87.792 103.208C87.792 102.611 88.0053 102.12 88.432 101.736C88.8587 101.309 89.3707 101.096 89.968 101.096C91.0347 101.096 91.7387 101.651 92.08 102.76C92.8053 104.765 94.2133 106.408 96.304 107.688C98.4373 108.925 100.827 109.544 103.472 109.544C105.563 109.544 107.419 109.181 109.04 108.456C110.704 107.731 111.984 106.749 112.88 105.512C113.819 104.275 114.288 102.888 114.288 101.352C114.288 99.3893 113.477 97.6827 111.856 96.232C110.235 94.7813 107.483 93.5227 103.6 92.456C94.6827 90.024 90.224 86.056 90.224 80.552C90.224 78.4613 90.8 76.6053 91.952 74.984C93.1467 73.3627 94.8533 72.0827 97.072 71.144C99.3333 70.2053 101.957 69.736 104.944 69.736C109.168 69.736 112.453 70.5467 114.8 72.168C117.147 73.7467 118.32 75.88 118.32 78.568C118.32 79.1227 118.128 79.6133 117.744 80.04C117.36 80.424 116.891 80.616 116.336 80.616C115.824 80.616 115.376 80.4453 114.992 80.104C114.651 79.7627 114.459 79.3573 114.416 78.888C114.203 77.2667 113.221 75.944 111.472 74.92C109.765 73.896 107.525 73.384 104.752 73.384C101.424 73.384 98.8427 74.0027 97.008 75.24C95.216 76.4773 94.32 78.184 94.32 80.36C94.32 82.1947 95.152 83.752 96.816 85.032C98.5227 86.312 101.125 87.4427 104.624 88.424C109.232 89.704 112.667 91.3893 114.928 93.48C117.232 95.528 118.384 98.0453 118.384 101.032C118.384 103.336 117.701 105.448 116.336 107.368C114.971 109.245 113.136 110.717 110.832 111.784C108.528 112.851 106.075 113.384 103.472 113.384ZM149.28 113.896C148.64 113.896 148.15 113.683 147.808 113.256C147.467 112.872 147.296 112.381 147.296 111.784V109.992C146.144 111.016 144.758 111.848 143.136 112.488C141.515 113.085 139.894 113.384 138.272 113.384C135.968 113.384 133.899 112.808 132.064 111.656C130.23 110.504 128.779 108.883 127.712 106.792C126.688 104.659 126.176 102.248 126.176 99.56C126.176 96.6587 126.774 93.8213 127.968 91.048C129.206 88.232 130.976 85.928 133.28 84.136C135.627 82.344 138.379 81.448 141.536 81.448C143.499 81.448 145.227 81.704 146.72 82.216C148.214 82.728 149.728 83.3467 151.264 84.072V111.784C151.264 112.381 151.072 112.872 150.688 113.256C150.304 113.683 149.835 113.896 149.28 113.896ZM138.272 109.608C139.936 109.608 141.6 109.224 143.264 108.456C144.928 107.645 146.208 106.792 147.104 105.896L147.36 86.504C146.678 86.2053 145.782 85.928 144.672 85.672C143.606 85.3733 142.603 85.224 141.664 85.224C139.574 85.224 137.654 85.8427 135.904 87.08C134.155 88.3173 132.768 90.024 131.744 92.2C130.763 94.3333 130.272 96.744 130.272 99.432C130.272 102.547 131.019 105.021 132.512 106.856C134.006 108.691 135.926 109.608 138.272 109.608ZM165.192 113.384C164.638 113.384 164.147 113.192 163.72 112.808C163.336 112.424 163.144 111.997 163.144 111.528V83.304C163.144 82.7493 163.336 82.3013 163.72 81.96C164.147 81.576 164.638 81.384 165.192 81.384C165.747 81.384 166.216 81.576 166.6 81.96C166.984 82.3013 167.176 82.7493 167.176 83.304V93.416C168.414 89.576 170.12 86.632 172.296 84.584C174.515 82.4933 177.011 81.448 179.784 81.448C182.131 81.448 183.987 82.0453 185.352 83.24C186.718 84.4347 187.699 86.3333 188.296 88.936C188.894 91.496 189.192 94.952 189.192 99.304C189.192 103.571 189.171 106.365 189.128 107.688V111.336C189.128 111.891 188.936 112.381 188.552 112.808C188.211 113.192 187.763 113.384 187.208 113.384C186.696 113.384 186.248 113.192 185.864 112.808C185.48 112.381 185.288 111.912 185.288 111.4V107.816C185.246 106.493 185.224 103.741 185.224 99.56C185.224 95.592 185.011 92.584 184.584 90.536C184.2 88.488 183.582 87.1013 182.728 86.376C181.918 85.608 180.744 85.224 179.208 85.224C177.758 85.224 176.328 85.7573 174.92 86.824C173.512 87.8907 172.275 89.4053 171.208 91.368C169.8 93.928 168.776 96.3387 168.136 98.6C167.539 100.861 167.219 103.187 167.176 105.576L167.112 111.272C167.112 111.869 166.92 112.381 166.536 112.808C166.195 113.192 165.747 113.384 165.192 113.384ZM204.088 113.448C203.533 113.448 203.042 113.256 202.616 112.872C202.232 112.488 202.04 112.04 202.04 111.528V85.416H194.936C194.381 85.416 193.912 85.224 193.528 84.84C193.144 84.4133 192.952 83.9227 192.952 83.368C192.952 82.7707 193.165 82.3013 193.592 81.96C194.018 81.576 194.509 81.384 195.064 81.384H202.04V72.616C202.04 72.0613 202.232 71.592 202.616 71.208C203.042 70.7813 203.533 70.568 204.088 70.568C204.685 70.568 205.154 70.7813 205.496 71.208C205.88 71.592 206.072 72.0613 206.072 72.616V81.384H213.24C213.837 81.384 214.328 81.576 214.712 81.96C215.096 82.344 215.288 82.8133 215.288 83.368C215.288 83.9227 215.074 84.4133 214.648 84.84C214.264 85.224 213.794 85.416 213.24 85.416H206.072V111.528C206.072 112.04 205.858 112.488 205.432 112.872C205.048 113.256 204.6 113.448 204.088 113.448ZM229.741 113.384C227.309 113.384 225.09 112.744 223.085 111.464C221.122 110.141 219.565 108.371 218.413 106.152C217.304 103.891 216.749 101.395 216.749 98.664C216.749 95.7627 217.389 92.9893 218.669 90.344C219.992 87.6987 221.805 85.5653 224.109 83.944C226.413 82.28 228.952 81.448 231.725 81.448C234.114 81.448 236.29 82.1093 238.253 83.432C240.258 84.712 241.816 86.4827 242.925 88.744C244.077 90.9627 244.653 93.416 244.653 96.104C244.653 99.176 243.97 102.035 242.605 104.68C241.24 107.325 239.405 109.437 237.101 111.016C234.84 112.595 232.386 113.384 229.741 113.384ZM229.997 109.736C231.832 109.736 233.56 109.117 235.181 107.88C236.802 106.643 238.104 105 239.085 102.952C240.066 100.904 240.557 98.728 240.557 96.424C240.557 94.4187 240.152 92.5627 239.341 90.856C238.53 89.1067 237.421 87.72 236.013 86.696C234.648 85.6293 233.112 85.096 231.405 85.096C229.528 85.096 227.778 85.736 226.157 87.016C224.578 88.2533 223.298 89.9173 222.317 92.008C221.378 94.056 220.909 96.232 220.909 98.536C220.909 100.755 221.314 102.717 222.125 104.424C222.978 106.088 224.109 107.389 225.517 108.328C226.925 109.267 228.418 109.736 229.997 109.736ZM262.347 113.512C259.915 113.512 257.803 113.021 256.011 112.04C254.261 111.016 252.917 109.843 251.979 108.52C251.083 107.155 250.635 106.003 250.635 105.064C250.635 104.509 250.805 104.061 251.147 103.72C251.531 103.336 252 103.144 252.555 103.144C253.493 103.144 254.091 103.592 254.347 104.488C254.944 106.195 255.947 107.517 257.355 108.456C258.763 109.395 260.491 109.864 262.539 109.864C264.587 109.864 266.272 109.309 267.595 108.2C268.917 107.091 269.579 105.768 269.579 104.232C269.579 103.336 269.365 102.589 268.939 101.992C268.555 101.352 267.829 100.755 266.763 100.2C265.739 99.6453 264.224 99.0693 262.219 98.472C258.763 97.4053 256.267 96.168 254.731 94.76C253.195 93.352 252.427 91.496 252.427 89.192C252.427 86.888 253.365 85.032 255.243 83.624C257.163 82.1733 259.893 81.448 263.435 81.448C266.635 81.448 269.088 82.1093 270.795 83.432C272.544 84.712 273.419 86.4827 273.419 88.744C273.419 89.768 273.248 90.5573 272.907 91.112C272.565 91.624 272.075 91.88 271.435 91.88C270.88 91.88 270.411 91.7093 270.027 91.368C269.643 90.984 269.451 90.5573 269.451 90.088C269.451 89.8747 269.472 89.64 269.515 89.384C269.6 89.128 269.643 88.8933 269.643 88.68C269.643 87.528 269.131 86.632 268.107 85.992C267.083 85.3093 265.525 84.968 263.435 84.968C261.131 84.968 259.339 85.352 258.059 86.12C256.821 86.8453 256.203 87.8907 256.203 89.256C256.203 90.5787 256.736 91.624 257.803 92.392C258.912 93.16 260.811 93.992 263.499 94.888C266.059 95.7413 268.021 96.552 269.387 97.32C270.795 98.088 271.797 99.0053 272.395 100.072C273.035 101.096 273.355 102.419 273.355 104.04C273.355 105.619 272.885 107.133 271.947 108.584C271.051 110.035 269.771 111.229 268.107 112.168C266.443 113.064 264.523 113.512 262.347 113.512ZM284.748 113.448C284.193 113.448 283.702 113.256 283.276 112.872C282.892 112.445 282.7 111.976 282.7 111.464V71.464C282.7 70.9093 282.892 70.44 283.276 70.056C283.702 69.6293 284.193 69.416 284.748 69.416C285.345 69.416 285.814 69.6293 286.156 70.056C286.54 70.44 286.732 70.9093 286.732 71.464V91.112C288.012 88.4667 289.782 86.1627 292.044 84.2C294.348 82.2373 296.694 81.256 299.084 81.256C302.241 81.256 304.46 83.0053 305.74 86.504C307.02 90.0027 307.66 95.4853 307.66 102.952C307.66 107.176 307.596 110.013 307.468 111.464C307.425 112.019 307.233 112.488 306.892 112.872C306.55 113.213 306.102 113.384 305.548 113.384C305.036 113.384 304.566 113.192 304.14 112.808C303.756 112.424 303.564 111.976 303.564 111.464C303.564 110.824 303.585 110.227 303.628 109.672L303.692 103.4C303.692 96.1893 303.222 91.368 302.284 88.936C301.345 86.4613 300.172 85.224 298.764 85.224C297.185 85.224 295.628 85.8853 294.092 87.208C292.556 88.488 291.212 89.9387 290.06 91.56C288.95 93.1387 288.161 94.44 287.692 95.464C287.052 96.744 286.732 98.5787 286.732 100.968V111.336C286.732 111.976 286.54 112.488 286.156 112.872C285.772 113.256 285.302 113.448 284.748 113.448Z" fill="url(#paint0_linear_0_1)"/>
<path d="M93.744 110.952L93.2115 111.798L93.2195 111.803L93.2275 111.808L93.744 110.952ZM88.176 104.488L89.1034 104.114L89.074 104.041L89.0335 103.974L88.176 104.488ZM88.432 101.736L89.101 102.479L89.1205 102.462L89.1391 102.443L88.432 101.736ZM92.08 102.76L91.1242 103.054L91.1314 103.077L91.1396 103.1L92.08 102.76ZM96.304 107.688L95.7818 108.541L95.792 108.547L95.8023 108.553L96.304 107.688ZM109.04 108.456L108.64 107.539L108.632 107.543L109.04 108.456ZM112.88 105.512L112.083 104.908L112.077 104.916L112.07 104.925L112.88 105.512ZM111.856 96.232L112.523 95.4868L112.523 95.4868L111.856 96.232ZM103.6 92.456L103.865 91.4917L103.863 91.4912L103.6 92.456ZM91.952 74.984L91.1469 74.3908L91.1418 74.3978L91.1368 74.4048L91.952 74.984ZM97.072 71.144L96.6886 70.2204L96.6824 70.223L97.072 71.144ZM114.8 72.168L114.232 72.9908L114.242 72.9977L114.8 72.168ZM117.744 80.04L118.451 80.7471L118.47 80.7285L118.487 80.709L117.744 80.04ZM114.992 80.104L114.285 80.8111L114.306 80.8319L114.328 80.8514L114.992 80.104ZM114.416 78.888L115.412 78.7975L115.41 78.7775L115.407 78.7575L114.416 78.888ZM111.472 74.92L110.957 75.7775L110.967 75.783L111.472 74.92ZM97.008 75.24L96.4488 74.4109L96.4398 74.4171L97.008 75.24ZM96.816 85.032L96.2062 85.8247L96.216 85.832L96.816 85.032ZM104.624 88.424L104.354 89.3868L104.356 89.3875L104.624 88.424ZM114.928 93.48L114.249 94.2143L114.256 94.2209L114.264 94.2274L114.928 93.48ZM116.336 107.368L117.145 107.956L117.151 107.948L116.336 107.368ZM110.832 111.784L110.412 110.877L110.412 110.877L110.832 111.784ZM103.472 112.384C99.8184 112.384 96.7628 111.605 94.2605 110.096L93.2275 111.808C96.1012 113.542 99.5309 114.384 103.472 114.384V112.384ZM94.2765 110.106C91.7913 108.542 90.0839 106.545 89.1034 104.114L87.2486 104.862C88.4015 107.721 90.4061 110.034 93.2115 111.798L94.2765 110.106ZM89.0335 103.974C88.855 103.676 88.792 103.425 88.792 103.208H86.792C86.792 103.844 86.985 104.447 87.3185 105.002L89.0335 103.974ZM88.792 103.208C88.792 102.881 88.8945 102.665 89.101 102.479L87.763 100.993C87.1161 101.575 86.792 102.34 86.792 103.208H88.792ZM89.1391 102.443C89.3804 102.202 89.6389 102.096 89.968 102.096V100.096C89.1024 100.096 88.337 100.417 87.7249 101.029L89.1391 102.443ZM89.968 102.096C90.3211 102.096 90.5334 102.184 90.6771 102.297C90.8284 102.417 90.9958 102.637 91.1242 103.054L93.0358 102.466C92.8229 101.774 92.4676 101.162 91.9149 100.727C91.3546 100.285 90.6816 100.096 89.968 100.096V102.096ZM91.1396 103.1C91.9535 105.35 93.528 107.161 95.7818 108.541L96.8262 106.835C94.8986 105.655 93.6572 104.181 93.0204 102.42L91.1396 103.1ZM95.8023 108.553C98.0991 109.885 100.664 110.544 103.472 110.544V108.544C100.99 108.544 98.7756 107.965 96.8057 106.823L95.8023 108.553ZM103.472 110.544C105.679 110.544 107.678 110.161 109.448 109.369L108.632 107.543C107.159 108.202 105.447 108.544 103.472 108.544V110.544ZM109.44 109.373C111.236 108.589 112.671 107.506 113.69 106.099L112.07 104.925C111.297 105.993 110.172 106.872 108.64 107.539L109.44 109.373ZM113.677 106.116C114.746 104.707 115.288 103.109 115.288 101.352H113.288C113.288 102.667 112.892 103.842 112.083 104.908L113.677 106.116ZM115.288 101.352C115.288 99.0721 114.33 97.1042 112.523 95.4868L111.189 96.9772C112.624 98.2612 113.288 99.7066 113.288 101.352H115.288ZM112.523 95.4868C110.725 93.8786 107.79 92.5702 103.865 91.4917L103.335 93.4203C107.175 94.4752 109.744 95.6841 111.189 96.9772L112.523 95.4868ZM103.863 91.4912C99.4795 90.2957 96.3008 88.7494 94.2328 86.909C92.1965 85.0967 91.224 82.9926 91.224 80.552H89.224C89.224 83.6154 90.4809 86.2473 92.9032 88.403C95.2939 90.5306 98.8031 92.1843 103.337 93.4208L103.863 91.4912ZM91.224 80.552C91.224 78.6576 91.7418 77.0064 92.7672 75.5632L91.1368 74.4048C89.8582 76.2043 89.224 78.265 89.224 80.552H91.224ZM92.7571 75.5772C93.826 74.1265 95.3758 72.9474 97.4616 72.065L96.6824 70.223C94.3309 71.2179 92.4673 72.5988 91.1469 74.3908L92.7571 75.5772ZM97.4554 72.0676C99.5716 71.1891 102.061 70.736 104.944 70.736V68.736C101.854 68.736 99.095 69.2215 96.6886 70.2204L97.4554 72.0676ZM104.944 70.736C109.057 70.736 112.115 71.5281 114.232 72.9907L115.368 71.3453C112.792 69.5652 109.279 68.736 104.944 68.736V70.736ZM114.242 72.9977C116.329 74.4021 117.32 76.2331 117.32 78.568H119.32C119.32 75.5269 117.964 73.0912 115.358 71.3383L114.242 72.9977ZM117.32 78.568C117.32 78.8663 117.226 79.1209 117.001 79.371L118.487 80.709C119.03 80.1057 119.32 79.379 119.32 78.568H117.32ZM117.037 79.3329C116.845 79.5249 116.632 79.616 116.336 79.616V81.616C117.15 81.616 117.875 81.3231 118.451 80.7471L117.037 79.3329ZM116.336 79.616C116.07 79.616 115.858 79.5358 115.656 79.3566L114.328 80.8514C114.894 81.3548 115.578 81.616 116.336 81.616V79.616ZM115.699 79.3969C115.519 79.2166 115.433 79.0277 115.412 78.7975L113.42 78.9785C113.485 79.6869 113.783 80.3087 114.285 80.8111L115.699 79.3969ZM115.407 78.7575C115.144 76.7572 113.922 75.1957 111.977 74.057L110.967 75.783C112.52 76.6923 113.261 77.7761 113.425 79.0185L115.407 78.7575ZM111.986 74.0625C110.075 72.9155 107.638 72.384 104.752 72.384V74.384C107.412 74.384 109.456 74.8765 110.958 75.7775L111.986 74.0625ZM104.752 72.384C101.319 72.384 98.5126 73.0191 96.4489 74.4109L97.5671 76.0691C99.1728 74.9862 101.529 74.384 104.752 74.384V72.384ZM96.4398 74.4171C94.3777 75.841 93.32 77.8551 93.32 80.36H95.32C95.32 78.5129 96.0543 77.1137 97.5762 76.0629L96.4398 74.4171ZM93.32 80.36C93.32 82.5527 94.3365 84.3863 96.2063 85.8246L97.4257 84.2394C95.9675 83.1177 95.32 81.8366 95.32 80.36H93.32ZM96.216 85.832C98.0675 87.2207 100.808 88.3922 104.354 89.3868L104.894 87.4612C101.443 86.4931 98.9778 85.4033 97.416 84.232L96.216 85.832ZM104.356 89.3875C108.888 90.6462 112.152 92.2752 114.249 94.2143L115.607 92.7457C113.182 90.5035 109.576 88.7618 104.892 87.4605L104.356 89.3875ZM114.264 94.2274C116.362 96.0926 117.384 98.3413 117.384 101.032H119.384C119.384 97.7494 118.102 94.9634 115.592 92.7326L114.264 94.2274ZM117.384 101.032C117.384 103.123 116.769 105.034 115.521 106.788L117.151 107.948C118.634 105.862 119.384 103.549 119.384 101.032H117.384ZM115.527 106.78C114.271 108.507 112.576 109.875 110.412 110.877L111.252 112.691C113.696 111.56 115.67 109.984 117.145 107.956L115.527 106.78ZM110.412 110.877C108.243 111.881 105.933 112.384 103.472 112.384V114.384C106.216 114.384 108.813 113.821 111.252 112.691L110.412 110.877ZM147.808 113.256L148.589 112.631L148.573 112.611L148.556 112.592L147.808 113.256ZM147.296 109.992H148.296V107.765L146.632 109.245L147.296 109.992ZM143.136 112.488L143.482 113.426L143.493 113.422L143.504 113.418L143.136 112.488ZM132.064 111.656L132.596 110.809L132.596 110.809L132.064 111.656ZM127.712 106.792L126.811 107.225L126.816 107.236L126.822 107.246L127.712 106.792ZM127.968 91.048L127.053 90.6457L127.05 90.6524L127.968 91.048ZM133.28 84.136L132.674 83.3412L132.667 83.3466L133.28 84.136ZM146.72 82.216L147.045 81.2701L147.045 81.2701L146.72 82.216ZM151.264 84.072H152.264V83.4383L151.692 83.1677L151.264 84.072ZM150.688 113.256L149.981 112.549L149.963 112.567L149.945 112.587L150.688 113.256ZM143.264 108.456L143.684 109.364L143.693 109.36L143.702 109.355L143.264 108.456ZM147.104 105.896L147.812 106.603L148.099 106.316L148.104 105.909L147.104 105.896ZM147.36 86.504L148.36 86.5172L148.369 85.8538L147.761 85.5878L147.36 86.504ZM144.672 85.672L144.403 86.635L144.425 86.6412L144.448 86.6464L144.672 85.672ZM135.904 87.08L135.327 86.2636L135.327 86.2636L135.904 87.08ZM131.744 92.2L130.84 91.7742L130.836 91.7821L131.744 92.2ZM132.512 106.856L131.737 107.487L131.737 107.487L132.512 106.856ZM149.28 112.896C148.886 112.896 148.707 112.779 148.589 112.631L147.028 113.881C147.592 114.587 148.395 114.896 149.28 114.896V112.896ZM148.556 112.592C148.403 112.42 148.296 112.179 148.296 111.784H146.296C146.296 112.584 146.531 113.324 147.061 113.92L148.556 112.592ZM148.296 111.784V109.992H146.296V111.784H148.296ZM146.632 109.245C145.578 110.181 144.296 110.955 142.769 111.558L143.504 113.418C145.22 112.741 146.711 111.851 147.961 110.739L146.632 109.245ZM142.791 111.55C141.273 112.109 139.768 112.384 138.272 112.384V114.384C140.019 114.384 141.757 114.062 143.482 113.426L142.791 111.55ZM138.272 112.384C136.144 112.384 134.261 111.855 132.596 110.809L131.533 112.503C133.537 113.761 135.793 114.384 138.272 114.384V112.384ZM132.596 110.809C130.927 109.761 129.595 108.281 128.603 106.338L126.822 107.246C127.963 109.484 129.532 111.247 131.533 112.503L132.596 110.809ZM128.614 106.359C127.663 104.378 127.176 102.119 127.176 99.56H125.176C125.176 102.377 125.714 104.939 126.811 107.225L128.614 106.359ZM127.176 99.56C127.176 96.8003 127.744 94.0972 128.887 91.4436L127.05 90.6524C125.804 93.5455 125.176 96.5171 125.176 99.56H127.176ZM128.884 91.4503C130.058 88.7779 131.729 86.6099 133.894 84.9253L132.667 83.3466C130.224 85.2461 128.353 87.6861 127.053 90.6457L128.884 91.4503ZM133.887 84.9308C136.047 83.2814 138.582 82.448 141.536 82.448V80.448C138.176 80.448 135.207 81.4066 132.674 83.3412L133.887 84.9308ZM141.536 82.448C143.415 82.448 145.029 82.6932 146.396 83.1619L147.045 81.2701C145.425 80.7148 143.584 80.448 141.536 80.448V82.448ZM146.396 83.1619C147.852 83.6611 149.332 84.2655 150.837 84.9762L151.692 83.1677C150.125 82.4278 148.576 81.7949 147.045 81.2701L146.396 83.1619ZM150.264 84.072V111.784H152.264V84.072H150.264ZM150.264 111.784C150.264 112.145 150.158 112.372 149.981 112.549L151.396 113.963C151.987 113.372 152.264 112.617 152.264 111.784H150.264ZM149.945 112.587C149.743 112.811 149.541 112.896 149.28 112.896V114.896C150.13 114.896 150.866 114.554 151.432 113.925L149.945 112.587ZM138.272 110.608C140.095 110.608 141.902 110.186 143.684 109.364L142.845 107.548C141.299 108.262 139.778 108.608 138.272 108.608V110.608ZM143.702 109.355C145.425 108.516 146.81 107.605 147.812 106.603L146.397 105.189C145.607 105.979 144.432 106.775 142.827 107.557L143.702 109.355ZM148.104 105.909L148.36 86.5172L146.361 86.4908L146.105 105.883L148.104 105.909ZM147.761 85.5878C147.001 85.255 146.039 84.9611 144.897 84.6976L144.448 86.6464C145.525 86.8949 146.355 87.1556 146.96 87.4202L147.761 85.5878ZM144.942 84.709C143.803 84.3901 142.709 84.224 141.664 84.224V86.224C142.497 86.224 143.409 86.3566 144.403 86.635L144.942 84.709ZM141.664 84.224C139.362 84.224 137.241 84.91 135.327 86.2636L136.482 87.8964C138.067 86.7753 139.786 86.224 141.664 86.224V84.224ZM135.327 86.2636C133.42 87.6124 131.928 89.4614 130.84 91.7742L132.649 92.6258C133.609 90.5866 134.89 89.0223 136.482 87.8964L135.327 86.2636ZM130.836 91.7821C129.786 94.0642 129.272 96.6206 129.272 99.432H131.272C131.272 96.8674 131.74 94.6025 132.653 92.6179L130.836 91.7821ZM129.272 99.432C129.272 102.703 130.058 105.425 131.737 107.487L133.288 106.225C131.98 104.618 131.272 102.39 131.272 99.432H129.272ZM131.737 107.487C133.418 109.553 135.622 110.608 138.272 110.608V108.608C136.229 108.608 134.593 107.828 133.288 106.225L131.737 107.487ZM163.72 112.808L163.013 113.515L163.032 113.534L163.052 113.551L163.72 112.808ZM163.72 81.96L164.385 82.7074L164.389 82.7033L163.72 81.96ZM166.6 81.96L165.893 82.6671L165.914 82.6879L165.936 82.7074L166.6 81.96ZM167.176 93.416H166.176L168.128 93.7227L167.176 93.416ZM172.296 84.584L172.982 85.3122L172.982 85.3118L172.296 84.584ZM185.352 83.24L186.011 82.4874L186.011 82.4874L185.352 83.24ZM188.296 88.936L187.322 89.1597L187.323 89.1632L188.296 88.936ZM189.128 107.688L188.129 107.656L188.128 107.672V107.688H189.128ZM188.552 112.808L187.809 112.139L187.805 112.144L188.552 112.808ZM185.864 112.808L185.121 113.477L185.139 113.497L185.157 113.515L185.864 112.808ZM185.288 107.816H186.288V107.8L186.288 107.784L185.288 107.816ZM184.584 90.536L183.602 90.7203L183.603 90.7301L183.606 90.74L184.584 90.536ZM182.728 86.376L182.041 87.102L182.06 87.1205L182.081 87.1379L182.728 86.376ZM174.92 86.824L175.524 87.6211L175.524 87.6211L174.92 86.824ZM171.208 91.368L172.085 91.8499L172.087 91.8455L171.208 91.368ZM168.136 98.6L167.174 98.3277L167.172 98.3361L167.17 98.3446L168.136 98.6ZM167.176 105.576L166.177 105.558L166.177 105.565L167.176 105.576ZM167.112 111.272L166.112 111.261V111.272H167.112ZM166.536 112.808L165.793 112.139L165.789 112.144L166.536 112.808ZM165.192 112.384C164.894 112.384 164.64 112.29 164.389 112.065L163.052 113.551C163.655 114.094 164.381 114.384 165.192 114.384V112.384ZM164.428 112.101C164.199 111.873 164.144 111.69 164.144 111.528H162.144C162.144 112.304 162.474 112.975 163.013 113.515L164.428 112.101ZM164.144 111.528V83.304H162.144V111.528H164.144ZM164.144 83.304C164.144 83.0094 164.233 82.8426 164.385 82.7074L163.056 81.2126C162.44 81.7601 162.144 82.4893 162.144 83.304H164.144ZM164.389 82.7033C164.64 82.4782 164.894 82.384 165.192 82.384V80.384C164.381 80.384 163.655 80.6738 163.052 81.2167L164.389 82.7033ZM165.192 82.384C165.488 82.384 165.701 82.4751 165.893 82.6671L167.308 81.2529C166.732 80.6769 166.006 80.384 165.192 80.384V82.384ZM165.936 82.7074C166.088 82.8426 166.176 83.0094 166.176 83.304H168.176C168.176 82.4893 167.881 81.7601 167.265 81.2126L165.936 82.7074ZM166.176 83.304V93.416H168.176V83.304H166.176ZM168.128 93.7227C169.331 89.9895 170.964 87.211 172.982 85.3122L171.611 83.8558C169.277 86.053 167.496 89.1625 166.225 93.1093L168.128 93.7227ZM172.982 85.3118C175.035 83.3771 177.292 82.448 179.784 82.448V80.448C176.73 80.448 173.995 81.6096 171.611 83.8562L172.982 85.3118ZM179.784 82.448C181.962 82.448 183.559 82.9996 184.694 83.9926L186.011 82.4874C184.415 81.0911 182.301 80.448 179.784 80.448V82.448ZM184.694 83.9926C185.842 84.9971 186.75 86.6699 187.322 89.1597L189.271 88.7123C188.648 85.9968 187.594 83.8722 186.011 82.4874L184.694 83.9926ZM187.323 89.1632C187.895 91.6162 188.192 94.9857 188.192 99.304H190.192C190.192 94.9183 189.893 91.3758 189.27 88.7088L187.323 89.1632ZM188.192 99.304C188.192 103.574 188.171 106.352 188.129 107.656L190.128 107.72C190.171 106.378 190.192 103.567 190.192 99.304H188.192ZM188.128 107.688V111.336H190.128V107.688H188.128ZM188.128 111.336C188.128 111.634 188.034 111.889 187.809 112.139L189.296 113.477C189.839 112.874 190.128 112.147 190.128 111.336H188.128ZM187.805 112.144C187.67 112.296 187.503 112.384 187.208 112.384V114.384C188.023 114.384 188.752 114.088 189.3 113.472L187.805 112.144ZM187.208 112.384C186.979 112.384 186.781 112.31 186.572 112.101L185.157 113.515C185.716 114.074 186.414 114.384 187.208 114.384V112.384ZM186.608 112.139C186.368 111.872 186.288 111.635 186.288 111.4H184.288C184.288 112.189 184.593 112.891 185.121 113.477L186.608 112.139ZM186.288 111.4V107.816H184.288V111.4H186.288ZM186.288 107.784C186.246 106.48 186.224 103.745 186.224 99.56H184.224C184.224 103.738 184.246 106.507 184.289 107.848L186.288 107.784ZM186.224 99.56C186.224 95.5728 186.011 92.4825 185.563 90.332L183.606 90.74C184.011 92.6855 184.224 95.6112 184.224 99.56H186.224ZM185.567 90.3517C185.173 88.2479 184.501 86.5704 183.376 85.6141L182.081 87.1379C182.662 87.6323 183.228 88.7281 183.602 90.7203L185.567 90.3517ZM183.416 85.65C182.36 84.6489 180.903 84.224 179.208 84.224V86.224C180.586 86.224 181.476 86.5671 182.041 87.102L183.416 85.65ZM179.208 84.224C177.496 84.224 175.86 84.858 174.317 86.0269L175.524 87.6211C176.797 86.6567 178.02 86.224 179.208 86.224V84.224ZM174.317 86.0269C172.77 87.1989 171.447 88.8349 170.33 90.8905L172.087 91.8455C173.103 89.9757 174.255 88.5824 175.524 87.6211L174.317 86.0269ZM170.332 90.8861C168.896 93.4971 167.839 95.9784 167.174 98.3277L169.099 98.8723C169.714 96.699 170.705 94.3589 172.085 91.8499L170.332 90.8861ZM167.17 98.3446C166.551 100.685 166.221 103.09 166.177 105.558L168.176 105.594C168.218 103.283 168.527 101.037 169.103 98.8554L167.17 98.3446ZM166.177 105.565L166.113 111.261L168.112 111.283L168.176 105.587L166.177 105.565ZM166.112 111.272C166.112 111.633 166.005 111.904 165.793 112.139L167.28 113.477C167.836 112.859 168.112 112.105 168.112 111.272H166.112ZM165.789 112.144C165.654 112.296 165.487 112.384 165.192 112.384V114.384C166.007 114.384 166.736 114.088 167.284 113.472L165.789 112.144ZM202.616 112.872L201.908 113.579L201.927 113.598L201.947 113.615L202.616 112.872ZM202.04 85.416H203.04V84.416H202.04V85.416ZM193.528 84.84L192.784 85.509L192.802 85.5285L192.82 85.5471L193.528 84.84ZM193.592 81.96L194.216 82.7409L194.239 82.7227L194.26 82.7033L193.592 81.96ZM202.04 81.384V82.384H203.04V81.384H202.04ZM202.616 71.208L201.908 70.5009L201.908 70.5009L202.616 71.208ZM205.496 71.208L204.715 71.8327L204.749 71.8759L204.788 71.9151L205.496 71.208ZM206.072 81.384H205.072V82.384H206.072V81.384ZM214.712 81.96L215.419 81.2529L215.419 81.2529L214.712 81.96ZM206.072 85.416V84.416H205.072V85.416H206.072ZM205.432 112.872L204.763 112.129L204.743 112.146L204.724 112.165L205.432 112.872ZM204.088 112.448C203.789 112.448 203.535 112.354 203.284 112.129L201.947 113.615C202.55 114.158 203.276 114.448 204.088 114.448V112.448ZM203.323 112.165C203.114 111.956 203.04 111.757 203.04 111.528H201.04C201.04 112.323 201.349 113.02 201.908 113.579L203.323 112.165ZM203.04 111.528V85.416H201.04V111.528H203.04ZM202.04 84.416H194.936V86.416H202.04V84.416ZM194.936 84.416C194.64 84.416 194.427 84.3249 194.235 84.1329L192.82 85.5471C193.396 86.1231 194.122 86.416 194.936 86.416V84.416ZM194.271 84.171C194.046 83.9209 193.952 83.6663 193.952 83.368H191.952C191.952 84.179 192.241 84.9057 192.784 85.509L194.271 84.171ZM193.952 83.368C193.952 83.0421 194.051 82.8731 194.216 82.7409L192.967 81.1791C192.279 81.7296 191.952 82.4992 191.952 83.368H193.952ZM194.26 82.7033C194.511 82.4782 194.765 82.384 195.064 82.384V80.384C194.252 80.384 193.526 80.6738 192.923 81.2167L194.26 82.7033ZM195.064 82.384H202.04V80.384H195.064V82.384ZM203.04 81.384V72.616H201.04V81.384H203.04ZM203.04 72.616C203.04 72.3202 203.131 72.1071 203.323 71.9151L201.908 70.5009C201.332 71.0769 201.04 71.8025 201.04 72.616H203.04ZM203.323 71.9151C203.58 71.6578 203.823 71.568 204.088 71.568V69.568C203.243 69.568 202.504 69.9048 201.908 70.5009L203.323 71.9151ZM204.088 71.568C204.413 71.568 204.582 71.6674 204.715 71.8327L206.276 70.5833C205.726 69.8953 204.956 69.568 204.088 69.568V71.568ZM204.788 71.9151C204.98 72.1071 205.072 72.3202 205.072 72.616H207.072C207.072 71.8025 206.779 71.0769 206.203 70.5009L204.788 71.9151ZM205.072 72.616V81.384H207.072V72.616H205.072ZM206.072 82.384H213.24V80.384H206.072V82.384ZM213.24 82.384C213.601 82.384 213.828 82.4903 214.004 82.6671L215.419 81.2529C214.827 80.6617 214.073 80.384 213.24 80.384V82.384ZM214.004 82.6671C214.196 82.8591 214.288 83.0722 214.288 83.368H216.288C216.288 82.5545 215.995 81.8289 215.419 81.2529L214.004 82.6671ZM214.288 83.368C214.288 83.6328 214.198 83.8756 213.94 84.1329L215.355 85.5471C215.951 84.9511 216.288 84.2125 216.288 83.368H214.288ZM213.94 84.1329C213.748 84.3249 213.535 84.416 213.24 84.416V86.416C214.053 86.416 214.779 86.1231 215.355 85.5471L213.94 84.1329ZM213.24 84.416H206.072V86.416H213.24V84.416ZM205.072 85.416V111.528H207.072V85.416H205.072ZM205.072 111.528C205.072 111.72 205.007 111.909 204.763 112.129L206.1 113.615C206.709 113.067 207.072 112.36 207.072 111.528H205.072ZM204.724 112.165C204.515 112.374 204.317 112.448 204.088 112.448V114.448C204.882 114.448 205.58 114.138 206.139 113.579L204.724 112.165ZM223.085 111.464L222.526 112.293L222.536 112.3L222.547 112.307L223.085 111.464ZM218.413 106.152L217.515 106.592L217.52 106.603L217.526 106.613L218.413 106.152ZM218.669 90.344L217.774 89.8967L217.769 89.9084L218.669 90.344ZM224.109 83.944L224.685 84.7619L224.694 84.7547L224.109 83.944ZM238.253 83.432L237.694 84.2613L237.704 84.2682L237.715 84.2749L238.253 83.432ZM242.925 88.744L242.027 89.1844L242.032 89.1947L242.038 89.2048L242.925 88.744ZM242.605 104.68L241.716 104.221L241.716 104.221L242.605 104.68ZM237.101 111.016L236.536 110.191L236.529 110.196L237.101 111.016ZM235.181 107.88L235.788 108.675L235.788 108.675L235.181 107.88ZM239.085 102.952L239.987 103.384L239.987 103.384L239.085 102.952ZM239.341 90.856L238.434 91.2765L238.438 91.2851L239.341 90.856ZM236.013 86.696L235.397 87.484L235.411 87.4946L235.425 87.5047L236.013 86.696ZM226.157 87.016L226.774 87.8031L226.777 87.8009L226.157 87.016ZM222.317 92.008L221.412 91.5831L221.408 91.5913L222.317 92.008ZM222.125 104.424L221.222 104.853L221.228 104.867L221.235 104.88L222.125 104.424ZM225.517 108.328L226.072 107.496L226.072 107.496L225.517 108.328ZM229.741 112.384C227.495 112.384 225.464 111.796 223.623 110.621L222.547 112.307C224.717 113.692 227.123 114.384 229.741 114.384V112.384ZM223.644 110.635C221.828 109.411 220.38 107.77 219.3 105.691L217.526 106.613C218.75 108.971 220.417 110.872 222.526 112.293L223.644 110.635ZM219.311 105.712C218.274 103.599 217.749 101.255 217.749 98.664H215.749C215.749 101.534 216.333 104.183 217.515 106.592L219.311 105.712ZM217.749 98.664C217.749 95.9155 218.354 93.2909 219.569 90.7796L217.769 89.9084C216.424 92.6878 215.749 95.6098 215.749 98.664H217.749ZM219.563 90.7912C220.816 88.2863 222.523 86.2831 224.684 84.7618L223.534 83.1262C221.087 84.8476 219.167 87.1111 217.775 89.8968L219.563 90.7912ZM224.694 84.7547C226.833 83.2105 229.167 82.448 231.725 82.448V80.448C228.736 80.448 225.993 81.3495 223.524 83.1333L224.694 84.7547ZM231.725 82.448C233.917 82.448 235.898 83.051 237.694 84.2613L238.812 82.6027C236.682 81.1677 234.311 80.448 231.725 80.448V82.448ZM237.715 84.2749C239.557 85.4504 240.994 87.0776 242.027 89.1844L243.823 88.3036C242.638 85.8877 240.96 83.9736 238.791 82.5891L237.715 84.2749ZM242.038 89.2048C243.11 91.2705 243.653 93.564 243.653 96.104H245.653C245.653 93.268 245.044 90.6548 243.812 88.2832L242.038 89.2048ZM243.653 96.104C243.653 99.0217 243.006 101.722 241.716 104.221L243.494 105.139C244.935 102.347 245.653 99.3303 245.653 96.104H243.653ZM241.716 104.221C240.422 106.73 238.694 108.712 236.536 110.191L237.666 111.841C240.116 110.163 242.058 107.921 243.494 105.139L241.716 104.221ZM236.529 110.196C234.428 111.663 232.173 112.384 229.741 112.384V114.384C232.6 114.384 235.252 113.527 237.673 111.836L236.529 110.196ZM229.997 110.736C232.075 110.736 234.013 110.03 235.788 108.675L234.574 107.085C233.107 108.205 231.588 108.736 229.997 108.736V110.736ZM235.788 108.675C237.548 107.331 238.945 105.558 239.987 103.384L238.183 102.52C237.262 104.442 236.056 105.954 234.574 107.085L235.788 108.675ZM239.987 103.384C241.034 101.199 241.557 98.8753 241.557 96.424H239.557C239.557 98.5807 239.099 100.609 238.183 102.52L239.987 103.384ZM241.557 96.424C241.557 94.2795 241.123 92.2758 240.244 90.4269L238.438 91.2851C239.181 92.8495 239.557 94.5578 239.557 96.424H241.557ZM240.248 90.4355C239.374 88.5487 238.161 87.0219 236.601 85.8873L235.425 87.5047C236.681 88.4181 237.687 89.6646 238.434 91.2765L240.248 90.4355ZM236.629 85.908C235.09 84.7062 233.338 84.096 231.405 84.096V86.096C232.885 86.096 234.205 86.5525 235.397 87.484L236.629 85.908ZM231.405 84.096C229.28 84.096 227.316 84.8266 225.537 86.2311L226.777 87.8009C228.24 86.6454 229.775 86.096 231.405 86.096V84.096ZM225.54 86.2289C223.821 87.5764 222.449 89.3723 221.412 91.5831L223.222 92.4329C224.147 90.4623 225.336 88.9302 226.774 87.8031L225.54 86.2289ZM221.408 91.5913C220.408 93.7731 219.909 96.0916 219.909 98.536H221.909C221.909 96.3724 222.349 94.3389 223.226 92.4247L221.408 91.5913ZM219.909 98.536C219.909 100.877 220.337 102.991 221.222 104.853L223.028 103.995C222.291 102.444 221.909 100.632 221.909 98.536H219.909ZM221.235 104.88C222.158 106.68 223.398 108.117 224.962 109.16L226.072 107.496C224.82 106.662 223.799 105.496 223.015 103.968L221.235 104.88ZM224.962 109.16C226.522 110.2 228.207 110.736 229.997 110.736V108.736C228.63 108.736 227.328 108.333 226.072 107.496L224.962 109.16ZM256.011 112.04L255.505 112.903L255.518 112.91L255.53 112.917L256.011 112.04ZM251.979 108.52L251.142 109.069L251.152 109.084L251.163 109.099L251.979 108.52ZM251.147 103.72L250.439 103.013L251.147 103.72ZM254.347 104.488L253.385 104.763L253.393 104.791L253.403 104.818L254.347 104.488ZM257.355 108.456L256.8 109.288L256.8 109.288L257.355 108.456ZM267.595 108.2L268.237 108.966L268.237 108.966L267.595 108.2ZM268.939 101.992L268.081 102.506L268.102 102.541L268.125 102.573L268.939 101.992ZM266.763 100.2L266.286 101.079L266.294 101.083L266.301 101.087L266.763 100.2ZM262.219 98.472L261.924 99.4276L261.933 99.4304L262.219 98.472ZM254.731 94.76L255.406 94.0228L255.406 94.0228L254.731 94.76ZM255.243 83.624L255.843 84.424L255.845 84.4219L255.243 83.624ZM270.795 83.432L270.182 84.2224L270.193 84.2309L270.204 84.239L270.795 83.432ZM272.907 91.112L273.739 91.6667L273.749 91.6516L273.758 91.6361L272.907 91.112ZM270.027 91.368L269.319 92.0751L269.34 92.0959L269.362 92.1154L270.027 91.368ZM269.515 89.384L268.566 89.0678L268.541 89.1422L268.528 89.2196L269.515 89.384ZM268.107 85.992L267.552 86.824L267.564 86.8322L267.577 86.84L268.107 85.992ZM258.059 86.12L258.564 86.9827L258.573 86.9775L258.059 86.12ZM257.803 92.392L257.218 93.2035L257.226 93.2089L257.233 93.2142L257.803 92.392ZM263.499 94.888L263.815 93.9393L263.815 93.9393L263.499 94.888ZM269.387 97.32L268.896 98.1916L268.908 98.1979L269.387 97.32ZM272.395 100.072L271.522 100.561L271.534 100.582L271.547 100.602L272.395 100.072ZM271.947 108.584L271.107 108.041L271.101 108.05L271.096 108.059L271.947 108.584ZM268.107 112.168L268.581 113.048L268.589 113.044L268.598 113.039L268.107 112.168ZM262.347 112.512C260.05 112.512 258.11 112.05 256.491 111.163L255.53 112.917C257.495 113.993 259.779 114.512 262.347 114.512V112.512ZM256.516 111.177C254.859 110.207 253.633 109.123 252.794 107.941L251.163 109.099C252.202 110.562 253.663 111.825 255.505 112.903L256.516 111.177ZM252.815 107.971C251.956 106.663 251.635 105.711 251.635 105.064H249.635C249.635 106.294 250.209 107.647 251.142 109.069L252.815 107.971ZM251.635 105.064C251.635 104.732 251.728 104.553 251.854 104.427L250.439 103.013C249.882 103.57 249.635 104.287 249.635 105.064H251.635ZM251.854 104.427C252.046 104.235 252.259 104.144 252.555 104.144V102.144C251.741 102.144 251.015 102.437 250.439 103.013L251.854 104.427ZM252.555 104.144C252.864 104.144 253.021 104.216 253.107 104.28C253.191 104.343 253.302 104.472 253.385 104.763L255.308 104.213C255.135 103.608 254.819 103.065 254.307 102.68C253.795 102.296 253.184 102.144 252.555 102.144V104.144ZM253.403 104.818C254.067 106.715 255.198 108.22 256.8 109.288L257.909 107.624C256.695 106.814 255.821 105.674 255.29 104.158L253.403 104.818ZM256.8 109.288C258.404 110.357 260.335 110.864 262.539 110.864V108.864C260.646 108.864 259.121 108.432 257.909 107.624L256.8 109.288ZM262.539 110.864C264.776 110.864 266.702 110.254 268.237 108.966L266.952 107.434C265.842 108.365 264.397 108.864 262.539 108.864V110.864ZM268.237 108.966C269.755 107.693 270.579 106.103 270.579 104.232H268.579C268.579 105.433 268.08 106.488 266.952 107.434L268.237 108.966ZM270.579 104.232C270.579 103.174 270.325 102.212 269.752 101.411L268.125 102.573C268.406 102.967 268.579 103.498 268.579 104.232H270.579ZM269.796 101.478C269.275 100.61 268.364 99.9056 267.224 99.3128L266.301 101.087C267.294 101.604 267.834 102.094 268.081 102.506L269.796 101.478ZM267.239 99.3207C266.124 98.717 264.532 98.1177 262.504 97.5136L261.933 99.4304C263.916 100.021 265.353 100.574 266.286 101.079L267.239 99.3207ZM262.513 97.5165C259.109 96.4659 256.78 95.2825 255.406 94.0228L254.055 95.4972C255.753 97.0535 258.416 98.3448 261.924 99.4275L262.513 97.5165ZM255.406 94.0228C254.1 92.8254 253.427 91.2487 253.427 89.192H251.427C251.427 91.7433 252.289 93.8786 254.055 95.4972L255.406 94.0228ZM253.427 89.192C253.427 87.2096 254.211 85.6473 255.843 84.424L254.643 82.824C252.519 84.4167 251.427 86.5664 251.427 89.192H253.427ZM255.845 84.4219C257.527 83.1513 260.012 82.448 263.435 82.448V80.448C259.774 80.448 256.798 81.1953 254.64 82.8261L255.845 84.4219ZM263.435 82.448C266.515 82.448 268.717 83.0873 270.182 84.2224L271.407 82.6416C269.458 81.1314 266.754 80.448 263.435 80.448V82.448ZM270.204 84.239C271.683 85.3213 272.419 86.7854 272.419 88.744H274.419C274.419 86.18 273.405 84.1027 271.385 82.625L270.204 84.239ZM272.419 88.744C272.419 89.6797 272.259 90.2568 272.055 90.5879L273.758 91.6361C274.237 90.8579 274.419 89.8563 274.419 88.744H272.419ZM272.074 90.5573C271.927 90.778 271.756 90.88 271.435 90.88V92.88C272.393 92.88 273.203 92.47 273.739 91.6667L272.074 90.5573ZM271.435 90.88C271.104 90.88 270.877 90.7857 270.691 90.6206L269.362 92.1154C269.944 92.633 270.656 92.88 271.435 92.88V90.88ZM270.734 90.6609C270.505 90.4325 270.451 90.2502 270.451 90.088H268.451C268.451 90.8645 268.78 91.5355 269.319 92.0751L270.734 90.6609ZM270.451 90.088C270.451 89.94 270.465 89.7613 270.501 89.5484L268.528 89.2196C268.478 89.5187 268.451 89.8093 268.451 90.088H270.451ZM270.463 89.7002C270.574 89.368 270.643 89.0249 270.643 88.68H268.643C268.643 88.7617 268.626 88.888 268.566 89.0678L270.463 89.7002ZM270.643 88.68C270.643 87.1636 269.936 85.9561 268.637 85.144L267.577 86.84C268.325 87.3079 268.643 87.8924 268.643 88.68H270.643ZM268.661 85.1599C267.394 84.3152 265.6 83.968 263.435 83.968V85.968C265.451 85.968 266.771 86.3035 267.552 86.824L268.661 85.1599ZM263.435 83.968C261.04 83.968 259.042 84.3637 257.544 85.2625L258.573 86.9775C259.635 86.3403 261.221 85.968 263.435 85.968V83.968ZM257.553 85.2573C256.028 86.151 255.203 87.5144 255.203 89.256H257.203C257.203 88.267 257.614 87.5396 258.564 86.9827L257.553 85.2573ZM255.203 89.256C255.203 90.8979 255.889 92.2462 257.218 93.2035L258.387 91.5805C257.583 91.0018 257.203 90.2595 257.203 89.256H255.203ZM257.233 93.2142C258.467 94.0681 260.481 94.9361 263.182 95.8367L263.815 93.9393C261.14 93.0479 259.357 92.2519 258.372 91.5698L257.233 93.2142ZM263.182 95.8367C265.718 96.6821 267.612 97.4692 268.896 98.1916L269.877 96.4484C268.43 95.6348 266.399 94.8006 263.815 93.9393L263.182 95.8367ZM268.908 98.1979C270.201 98.9033 271.041 99.702 271.522 100.561L273.267 99.5834C272.553 98.3087 271.388 97.2727 269.865 96.4421L268.908 98.1979ZM271.547 100.602C272.059 101.421 272.355 102.544 272.355 104.04H274.355C274.355 102.294 274.01 100.771 273.243 99.542L271.547 100.602ZM272.355 104.04C272.355 105.408 271.951 106.736 271.107 108.041L272.786 109.127C273.819 107.531 274.355 105.83 274.355 104.04H272.355ZM271.096 108.059C270.299 109.349 269.15 110.431 267.615 111.297L268.598 113.039C270.391 112.028 271.802 110.72 272.797 109.109L271.096 108.059ZM267.632 111.288C266.135 112.094 264.382 112.512 262.347 112.512V114.512C264.663 114.512 266.75 114.034 268.581 113.048L267.632 111.288ZM283.276 112.872L282.532 113.541L282.567 113.58L282.607 113.615L283.276 112.872ZM283.276 70.056L283.983 70.7631L283.983 70.7631L283.276 70.056ZM286.156 70.056L285.375 70.6807L285.409 70.7239L285.448 70.7631L286.156 70.056ZM286.732 91.112H285.732L287.632 91.5476L286.732 91.112ZM292.044 84.2L291.395 83.4387L291.388 83.4448L292.044 84.2ZM305.74 86.504L306.679 86.1604L306.679 86.1604L305.74 86.504ZM307.468 111.464L306.471 111.376L306.47 111.387L307.468 111.464ZM306.892 112.872L307.599 113.579L307.619 113.558L307.639 113.536L306.892 112.872ZM304.14 112.808L303.432 113.515L303.451 113.534L303.471 113.551L304.14 112.808ZM303.628 109.672L304.625 109.749L304.627 109.715L304.627 109.682L303.628 109.672ZM303.692 103.4L304.692 103.41V103.4H303.692ZM302.284 88.936L301.348 89.2907L301.351 89.2961L302.284 88.936ZM294.092 87.208L294.732 87.9762L294.738 87.971L294.744 87.9658L294.092 87.208ZM290.06 91.56L289.244 90.9808L289.241 90.9851L290.06 91.56ZM287.692 95.464L288.586 95.9112L288.594 95.8961L288.601 95.8807L287.692 95.464ZM286.156 112.872L285.448 112.165L285.448 112.165L286.156 112.872ZM284.748 112.448C284.449 112.448 284.195 112.354 283.944 112.129L282.607 113.615C283.21 114.158 283.936 114.448 284.748 114.448V112.448ZM284.019 112.203C283.779 111.936 283.7 111.699 283.7 111.464H281.7C281.7 112.253 282.004 112.955 282.532 113.541L284.019 112.203ZM283.7 111.464V71.464H281.7V111.464H283.7ZM283.7 71.464C283.7 71.1682 283.791 70.9551 283.983 70.7631L282.568 69.3489C281.992 69.9249 281.7 70.6505 281.7 71.464H283.7ZM283.983 70.7631C284.24 70.5058 284.483 70.416 284.748 70.416V68.416C283.903 68.416 283.164 68.7528 282.568 69.3489L283.983 70.7631ZM284.748 70.416C285.073 70.416 285.242 70.5154 285.375 70.6807L286.936 69.4313C286.386 68.7433 285.616 68.416 284.748 68.416V70.416ZM285.448 70.7631C285.64 70.9551 285.732 71.1682 285.732 71.464H287.732C287.732 70.6505 287.439 69.9249 286.863 69.3489L285.448 70.7631ZM285.732 71.464V91.112H287.732V71.464H285.732ZM287.632 91.5476C288.851 89.0266 290.538 86.8307 292.699 84.9552L291.388 83.4448C289.026 85.4946 287.172 87.9067 285.831 90.6764L287.632 91.5476ZM292.692 84.9612C294.865 83.1105 296.99 82.256 299.084 82.256V80.256C296.399 80.256 293.83 81.3642 291.395 83.4388L292.692 84.9612ZM299.084 82.256C300.465 82.256 301.584 82.634 302.496 83.3533C303.421 84.0821 304.204 85.2182 304.8 86.8476L306.679 86.1604C305.995 84.2912 305.029 82.8032 303.735 81.7827C302.428 80.7526 300.859 80.256 299.084 80.256V82.256ZM304.8 86.8476C306.017 90.1735 306.66 95.5091 306.66 102.952H308.66C308.66 95.4616 308.022 89.8318 306.679 86.1604L304.8 86.8476ZM306.66 102.952C306.66 107.182 306.595 109.976 306.471 111.376L308.464 111.552C308.596 110.05 308.66 107.17 308.66 102.952H306.66ZM306.47 111.387C306.443 111.743 306.328 112.001 306.144 112.208L307.639 113.536C308.138 112.975 308.407 112.294 308.465 111.541L306.47 111.387ZM306.184 112.165C306.059 112.29 305.88 112.384 305.548 112.384V114.384C306.325 114.384 307.041 114.136 307.599 113.579L306.184 112.165ZM305.548 112.384C305.313 112.384 305.075 112.305 304.808 112.065L303.471 113.551C304.057 114.079 304.758 114.384 305.548 114.384V112.384ZM304.847 112.101C304.638 111.892 304.564 111.693 304.564 111.464H302.564C302.564 112.259 302.873 112.956 303.432 113.515L304.847 112.101ZM304.564 111.464C304.564 110.846 304.584 110.274 304.625 109.749L302.63 109.595C302.586 110.179 302.564 110.802 302.564 111.464H304.564ZM304.627 109.682L304.691 103.41L302.692 103.39L302.628 109.662L304.627 109.682ZM304.692 103.4C304.692 99.7763 304.574 96.7334 304.335 94.2791C304.097 91.8414 303.735 89.9201 303.216 88.5759L301.351 89.2961C301.77 90.3839 302.112 92.0893 302.344 94.4729C302.575 96.8399 302.692 99.813 302.692 103.4H304.692ZM303.219 88.5813C302.269 86.078 300.871 84.224 298.764 84.224V86.224C299.472 86.224 300.421 86.8447 301.349 89.2907L303.219 88.5813ZM298.764 84.224C296.884 84.224 295.104 85.0167 293.439 86.4502L294.744 87.9658C296.151 86.7539 297.486 86.224 298.764 86.224V84.224ZM293.451 86.4398C291.849 87.7747 290.447 89.2888 289.244 90.9808L290.875 92.1392C291.976 90.5885 293.262 89.2013 294.732 87.9762L293.451 86.4398ZM289.241 90.9851C288.118 92.5838 287.289 93.9425 286.782 95.0473L288.601 95.8807C289.033 94.9375 289.782 93.6936 290.878 92.1349L289.241 90.9851ZM286.797 95.0168C286.056 96.499 285.732 98.5145 285.732 100.968H287.732C287.732 98.6428 288.047 96.989 288.586 95.9112L286.797 95.0168ZM285.732 100.968V111.336H287.732V100.968H285.732ZM285.732 111.336C285.732 111.762 285.612 112.002 285.448 112.165L286.863 113.579C287.467 112.974 287.732 112.19 287.732 111.336H285.732ZM285.448 112.165C285.256 112.357 285.043 112.448 284.748 112.448V114.448C285.561 114.448 286.287 114.155 286.863 113.579L285.448 112.165Z" fill="#567C88"/>
<defs>
<linearGradient id="paint0_linear_0_1" x1="94" y1="70" x2="344" y2="117" gradientUnits="userSpaceOnUse">
<stop stop-color="#41AFD1"/>
<stop offset="1" stop-color="#C12AF7"/>
</linearGradient>
</defs>
</svg>
