<svg xmlns="http://www.w3.org/2000/svg" width="64" height="64" enable-background="new 0 0 64 64" viewBox="0 0 64 64" id="atom"><path d="M55.987,26.68c3.359-5.898,3.891-10.881,1.498-14.03c-2.393-3.151-7.334-3.976-13.916-2.327
		c-0.301,0.075-0.611,0.177-0.914,0.262C40.067,4.055,36.284,0,31.999,0c-4.283,0-8.068,4.055-10.656,10.584
		c-0.303-0.084-0.613-0.187-0.912-0.262c-6.58-1.65-11.523-0.825-13.918,2.327c-2.391,3.149-1.859,8.132,1.498,14.03
		c0.998,1.751,2.232,3.528,3.631,5.297c-6.105,7.699-8.354,15.127-5.129,19.375c1.625,2.137,4.395,3.157,7.902,3.157
		c2.08,0,4.426-0.366,6.939-1.065C23.942,59.957,27.722,64,31.999,64c4.279,0,8.059-4.043,10.645-10.556
		c2.516,0.699,4.859,1.065,6.941,1.065c3.508,0,6.277-1.021,7.9-3.158c3.225-4.247,0.977-11.675-5.129-19.374
		C53.755,30.208,54.991,28.431,55.987,26.68z M44.04,12.204c2.043-0.512,3.912-0.765,5.555-0.765c2.938,0,5.15,0.808,6.346,2.383
		c1.865,2.456,1.268,6.793-1.639,11.898c-0.889,1.562-1.977,3.146-3.205,4.728c-1.533-1.792-3.27-3.587-5.188-5.351
		c-0.445-4.723-1.34-9.027-2.584-12.688C43.562,12.344,43.806,12.263,44.04,12.204z M40.604,43.334
		c1.08-0.82,2.113-1.667,3.125-2.524c-0.488,3.752-1.277,7.212-2.293,10.204c-2.361-0.788-4.871-1.868-7.436-3.209
		C36.192,46.492,38.407,45.004,40.604,43.334z M39.433,41.79c-2.455,1.863-4.959,3.511-7.434,4.923
		c-2.475-1.412-4.979-3.06-7.432-4.923c-1.615-1.226-3.154-2.5-4.604-3.805c-0.168-1.94-0.256-3.943-0.256-5.985
		c0-2.038,0.088-4.036,0.254-5.973c1.443-1.305,2.98-2.583,4.605-3.816c2.441-1.854,4.941-3.512,7.432-4.942
		c2.492,1.43,4.992,3.088,7.434,4.942c1.623,1.232,3.162,2.511,4.604,3.815c0.166,1.938,0.254,3.936,0.254,5.974
		c0,2.042-0.088,4.044-0.256,5.985C42.585,39.29,41.048,40.564,39.433,41.79z M29.999,47.805c-2.564,1.341-5.074,2.422-7.438,3.21
		c-1.016-2.992-1.805-6.453-2.293-10.206c1.012,0.858,2.045,1.706,3.125,2.525C25.593,45.004,27.808,46.492,29.999,47.805z
		 M17.88,36.023c-1.342-1.318-2.586-2.659-3.723-4.007c1.129-1.342,2.373-2.688,3.721-4.02c-0.07,1.311-0.109,2.644-0.109,4.003
		C17.769,33.366,17.81,34.707,17.88,36.023z M20.271,23.176c0.49-3.752,1.279-7.212,2.297-10.203c2.41,0.799,4.92,1.887,7.461,3.223
		c-2.23,1.331-4.457,2.816-6.635,4.47C22.312,21.489,21.272,22.328,20.271,23.176z M33.972,16.196
		c2.539-1.335,5.049-2.424,7.461-3.223c1.016,2.99,1.807,6.45,2.295,10.201c-1.002-0.848-2.039-1.687-3.123-2.508
		C38.429,19.013,36.202,17.527,33.972,16.196z M46.12,27.996c1.348,1.331,2.592,2.678,3.721,4.02
		c-1.137,1.349-2.379,2.689-3.721,4.008c0.07-1.317,0.109-2.657,0.109-4.024C46.229,30.641,46.19,29.307,46.12,27.996z
		 M31.999,1.939c3.391,0,6.512,3.569,8.76,9.217c-2.83,0.944-5.785,2.268-8.76,3.907c-2.975-1.639-5.928-2.963-8.76-3.907
		C25.489,5.508,28.608,1.939,31.999,1.939z M9.696,25.72C6.79,20.615,6.194,16.278,8.06,13.822c1.195-1.576,3.408-2.383,6.346-2.383
		c1.641,0,3.51,0.252,5.555,0.765c0.234,0.059,0.477,0.141,0.715,0.206c-1.244,3.661-2.139,7.965-2.584,12.688
		c-1.92,1.764-3.654,3.559-5.189,5.35C11.673,28.865,10.585,27.281,9.696,25.72z M8.06,50.179
		c-2.574-3.391-0.412-9.845,4.865-16.633c1.547,1.809,3.277,3.598,5.164,5.337c0.443,4.73,1.34,9.041,2.584,12.706
		C14.825,53.205,10.106,52.875,8.06,50.179z M31.999,62.061c-3.385,0-6.502-3.558-8.75-9.191c2.777-0.927,5.73-2.242,8.75-3.91
		c3.02,1.668,5.973,2.983,8.75,3.91C38.501,58.502,35.384,62.061,31.999,62.061z M55.94,50.179
		c-2.047,2.696-6.768,3.025-12.615,1.409c1.246-3.665,2.141-7.975,2.586-12.704c1.887-1.739,3.617-3.528,5.164-5.338
		C56.353,40.334,58.515,46.788,55.94,50.179z"></path><path d="M31.999,27.277c-2.604,0-4.723,2.119-4.723,4.723c0,2.604,2.119,4.724,4.723,4.724s4.725-2.119,4.725-4.724
		C36.724,29.396,34.603,27.277,31.999,27.277z M31.999,34.784c-1.535,0-2.783-1.249-2.783-2.784c0-1.535,1.248-2.784,2.783-2.784
		s2.785,1.249,2.785,2.784C34.784,33.535,33.534,34.784,31.999,34.784z"></path></svg>