<svg id="visual" viewBox="0 0 900 600" width="900" height="600" xmlns="http://www.w3.org/2000/svg" xmlns:xlink="http://www.w3.org/1999/xlink" version="1.1"><rect x="0" y="0" width="900" height="600" fill="#120e16"></rect><g transform="translate(918.6081516158246 -88.54461998632095)"><path d="M122.4 -190C187.1 -148.9 287.8 -163.1 310.1 -135.4C332.5 -107.7 276.6 -38 251.9 26.3C227.3 90.6 233.8 149.4 222.5 231C211.2 312.5 182.1 416.8 116.6 468.7C51.1 520.7 -50.8 520.4 -151.9 499C-252.9 477.7 -353.2 435.3 -352.5 352.2C-351.8 269.1 -250.1 145.2 -231.9 53.5C-213.6 -38.1 -278.7 -97.6 -273.2 -131C-267.6 -164.4 -191.4 -171.8 -134.1 -216.3C-76.8 -260.8 -38.4 -342.4 -4.8 -335C28.8 -327.5 57.7 -231.1 122.4 -190" fill="none" stroke="#8b31ff" stroke-width="6"></path></g></svg>