<svg xmlns="http://www.w3.org/2000/svg" viewBox="0 0 64 64" id="certification"><rect width="58" height="38" x="3" y="9" fill="#fff"></rect><polygon fill="#fff" points="52 44 52 55 46 51 40 55 40 44 52 44"></polygon><path fill="#e6e6e6" d="M52,44v3.22a11,11,0,0,1-12,0V44Z"></path><path fill="#ffa88a" d="M54,38a8,8,0,1,1-5.45-7.58A8,8,0,0,1,54,38Z"></path><path fill="#fd9467" d="M50,35a8,8,0,0,1-10.55,7.58,8,8,0,0,1,9.1-12.16A8,8,0,0,1,50,35Z"></path><path fill="#4e5b5f" d="M61,8H3A1,1,0,0,0,2,9V47a1,1,0,0,0,1,1H39v7a1,1,0,0,0,.53.88,1,1,0,0,0,1-.05L46,52.2l5.45,3.63A1,1,0,0,0,53,55V48h8a1,1,0,0,0,1-1V9A1,1,0,0,0,61,8ZM51,53.13l-4.45-3a1,1,0,0,0-1.1,0l-4.45,3V45.48a9,9,0,0,0,10,0ZM46,45a7,7,0,1,1,7-7A7,7,0,0,1,46,45Zm14,1H53V43.65a9,9,0,1,0-14,0V46H4V10H60Z"></path><path fill="#e6e6e6" d="M12,23H52a3,3,0,0,0,0-6H12a3,3,0,0,0,0,6Z"></path><path fill="#7accbe" d="M55,18a3,3,0,0,1-3,3H12a3,3,0,0,1,0-6H52A3,3,0,0,1,55,18Z"></path><path fill="#fd9467" d="M38 27H25a1 1 0 0 0 0 2H38a1 1 0 0 0 0-2zM34 34H15a1 1 0 0 0 0 2H34a1 1 0 0 0 0-2z"></path><circle cx="46" cy="38" r="3" fill="#fff"></circle><path fill="#61c3b6" d="M46.17,15a21.47,21.47,0,0,1-2.73,6H12a3,3,0,0,1,0-6Z"></path></svg>