<svg xmlns="http://www.w3.org/2000/svg" viewBox="0 0 64 64" id="css"><path fill="#003414" d="M11 3h46v54H11z"></path><path fill="#f7fcff" d="M53 17v44H7V7h36l10 10z"></path><path fill="#03ad3e" d="M7 7v18h46v-8L43 7H7z"></path><path fill="#00451a" d="M53 17h-8a2 2 0 0 1-2-2V7Z"></path><path fill="#003414" d="M16 22h2a1 1 0 0 0 0-2h-2a3 3 0 0 1-3-3v-2a3 3 0 0 1 3-3h2a1 1 0 0 0 0-2h-2a5 5 0 0 0-5 5v2a5 5 0 0 0 5 5zm20 13a1 1 0 0 0 1 1 2 2 0 0 1 2 2v2a4 4 0 0 0 1.36 3A4 4 0 0 0 39 46v2a2 2 0 0 1-2 2 1 1 0 0 0 0 2 4 4 0 0 0 4-4v-2a2 2 0 0 1 2-2 1 1 0 0 0 0-2 2 2 0 0 1-2-2v-2a4 4 0 0 0-4-4 1 1 0 0 0-1 1zm-17 5a2 2 0 0 1-2 2 1 1 0 0 0 0 2 2 2 0 0 1 2 2v2a4 4 0 0 0 4 4 1 1 0 0 0 0-2 2 2 0 0 1-2-2v-2a4 4 0 0 0-1.36-3A4 4 0 0 0 21 40v-2a2 2 0 0 1 2-2 1 1 0 0 0 0-2 4 4 0 0 0-4 4zm16.5-20H34a1 1 0 0 1-1-1 1 1 0 0 0-2 0 3 3 0 0 0 3 3h1.5a3.5 3.5 0 0 0 0-7h-1a1.5 1.5 0 0 1 0-3H36a1 1 0 0 1 1 1 1 1 0 0 0 2 0 3 3 0 0 0-3-3h-1.5a3.5 3.5 0 0 0 0 7h1a1.5 1.5 0 0 1 0 3zm-10 0H24a1 1 0 0 1-1-1 1 1 0 0 0-2 0 3 3 0 0 0 3 3h1.5a3.5 3.5 0 0 0 0-7h-1a1.5 1.5 0 0 1 0-3H26a1 1 0 0 1 1 1 1 1 0 0 0 2 0 3 3 0 0 0-3-3h-1.5a3.5 3.5 0 0 0 0 7h1a1.5 1.5 0 0 1 0 3z"></path></svg>