<svg xmlns="http://www.w3.org/2000/svg" data-name="Layer 1" viewBox="0 0 512 512" id="painting-tools"><defs><linearGradient id="a" x1="256" x2="256" y1="21.711" y2="474.846" gradientUnits="userSpaceOnUse"><stop offset="0" stop-color="#00efd1"></stop><stop offset="1" stop-color="#00acea"></stop></linearGradient></defs><path fill="url(#a)" d="M372.6,221H347.542l1.481-38.1a8.019,8.019,0,0,0-.089-1.548l-11.216-71.916a44.417,44.417,0,0,0,16.5-16.468c7.334-12.8,7.39-27.818.149-40.174q-.187-.319-.4-.62L322.5,8.336A8,8,0,0,0,316.005,5h0a8,8,0,0,0-6.493,3.327L278.044,52.044q-.224.312-.419.645a39.84,39.84,0,0,0,.2,40.326,44.419,44.419,0,0,0,15.853,16.059l-10.619,72.343a8.073,8.073,0,0,0-.079,1.482l1.481,38.1H233V86.584a8.192,8.192,0,0,0-.5-2.386L221.624,49.621a26.809,26.809,0,0,0-51.161,0L159.511,84.2A8.206,8.206,0,0,0,159,86.584V221H139.4c-4.418,0-8.4,3.563-8.4,7.982V475.621c0,17.3,14.478,31.379,31.78,31.379H349.22c17.3,0,31.78-14.077,31.78-31.379V228.982C381,224.563,377.017,221,372.6,221ZM147,295H365V433H147ZM291.271,61.057l24.72-34.349L340.732,61.18c4.2,7.393,4.056,16.058-.4,23.831a27.91,27.91,0,0,1-48.639.032C287.212,77.241,287.062,68.519,291.271,61.057ZM316,115.243a43.28,43.28,0,0,0,6.355-.273l9.33,60.03H300.23l8.8-60.135A43.184,43.184,0,0,0,316,115.243ZM299.288,191h33.424l-1.183,30H300.47ZM196,46.835A10.916,10.916,0,0,1,206.283,54.6L213.842,79H178.158l7.559-24.4A10.917,10.917,0,0,1,196,46.835ZM175,95h42V221H175ZM365,237v42H147V237ZM349.22,491H162.78C154.3,491,147,484.1,147,475.621V449H365v26.621C365,484.1,357.7,491,349.22,491Z"></path></svg>